<?xml version="1.0" encoding="utf-8"?>
<!-- Generator: Adobe Illustrator 23.0.1, SVG Export Plug-In . SVG Version: 6.00 Build 0)  -->
<svg version="1.1" id="Livello_1" xmlns="http://www.w3.org/2000/svg" xmlns:xlink="http://www.w3.org/1999/xlink" x="0px" y="0px"
	 viewBox="0 0 425 286" style="enable-background:new 0 0 425 286;" xml:space="preserve">
<path d="M214.5,1.5c2.4-1.3,5.1-0.6,7.4,0.5c24.2,10.1,48.5,20.2,72.7,30.4c2.7,1.2,6.1,1.9,7.5,4.8c1.5,2.7-0.8,5.9-3.3,7
	c-2.3,0.8-4.5-0.7-6.6-1.4c-24.2-10.2-48.5-20.2-72.7-30.4c-1.3-0.4-2.8-0.4-4.2,0c-24.9,10.5-49.8,21-74.8,31.3
	c-3.3,2-8.4-0.8-7.8-4.8c-0.2-2.9,2.3-4.5,4.7-5.4C163.2,22.9,188.8,12.2,214.5,1.5z"/>
<path d="M176.4,55.7c11-1,22.4-0.2,32.6,4.2c3.1,1.1,5.7,3.7,9,3.9c4.2-1.6,8-4.3,12.4-5.5c18.3-5.7,39.7-3.6,55.2,8.1
	c2.2,1.4,2.9,4.1,2.8,6.6c0,26.7,0,53.3,0,79.9c-0.1,2.4-0.6,5.4-3.2,6.3c-2.5,1-5-0.1-7.1-1.5c-8.3-5.4-18.5-6.6-28.1-6.8
	c-9.7,0.3-19.8,1.6-28,7c-2.2,1.6-5.3,2.3-7.7,0.6c-5.7-3.8-12.2-6-19-6.9c-11.4-1.4-23.5-1-34.1,3.7c-3.5,1.4-6.6,5-10.7,4
	c-3.2-0.8-3.6-4.6-3.8-7.4c0-26,0-52.1,0-78.1c0-2.7,0.3-5.8,2.7-7.5C157.3,60.5,166.8,57,176.4,55.7 M157.6,73.6
	c-0.1,23.8,0,47.7,0,71.5c17.6-6.1,37.2-6.3,54.8,0.1c0-23.9,0-47.7,0-71.6c-6.1-3.4-12.7-6.4-19.7-7.3
	C180.5,64.4,167.9,67.1,157.6,73.6 M222.7,73.7c0,23.8,0,47.5,0,71.3c8.3-2.2,16.7-4.6,25.3-4.5c10-0.4,20,1.3,29.4,4.7
	c0-23.8,0.1-47.5,0-71.3C261.5,62.7,238.9,63.3,222.7,73.7z"/>
<g>
	<path d="M23.8,216.8c9.2-9.9,21.3-18.7,35.2-19.5c4.3-0.5,9.6,1.9,10.1,6.7c-1,6.8-6.3,11.7-11.2,16c-3.5,2.7-7.7,5.8-12.4,4.3
		c-2.3-1-2.3-3.5-2.2-5.6c4.7,0.4,8.2-2.9,11.5-5.8c2.5-2.4,5-5.1,5.5-8.6c-3.5-0.1-7,0.7-10.1,2.2c-12.5,6-23.1,16-29.5,28.4
		c-2.4,4.6-3.5,10-2.3,15.1c2,3.2,6.3,2.9,9.4,1.8c10.3-3.3,18.2-11,26.2-17.8c0.2,3.9-0.3,8.3-3,11.3c-5.6,6.3-13.1,10.8-21.2,13.2
		c-3.9,0.9-8.3,1.9-12-0.1c-4-2.2-7.7-6.3-7.4-11.2C9.8,235.5,16.4,225.1,23.8,216.8z"/>
	<path d="M76.4,224.6c2.2-0.4,4.6-0.5,6.6,0.6c2.2,1.2,5.3,1.4,6.5,3.9c0.7,4-1.3,7.8-3.2,11.2c-4,6.8-9.3,12.9-15.9,17.1
		c-3.7,2.3-8.5,4.2-12.7,1.9c-3.4-2.2-3.8-6.6-3-10.3C57.4,238,65.9,228.7,76.4,224.6 M66.6,239.6c-3.1,4.1-6.4,8.8-5.2,14.2
		c3.6,0.1,6.7-1.9,9.2-4.3c4.9-4.6,9.2-10.2,11.5-16.6c-1.1-1-2.1-2.1-3.2-3.1C74,232,69.8,235.4,66.6,239.6z"/>
	<path d="M100.7,226.6c1.8-2.6,5.1-2.4,7.9-2.4c-0.7,3.5-2.5,6.7-4.3,9.7c4.7-4.2,9.7-10,16.6-9.6c2.3-0.4,4.1,2.5,3.2,4.6
		c-1.9,5-4.8,9.8-9.1,13.2c-4.6-2.4-1.8-7.6,0-10.9c-9.7,7.6-17.9,16.9-25.4,26.6c-1.5,2-4.3,0.5-6.4,0.6c-0.3-3.3,1.9-5.9,3.5-8.6
		C91.4,242.1,95.7,234.1,100.7,226.6z"/>
	<path d="M131.8,226.7c1.8-2.6,5.1-2.6,8-2.4c-0.8,3.4-2.6,6.6-4.5,9.5c3.3-3.2,6.8-6.4,10.9-8.6c2.5-1.5,5.5-0.9,8.3-0.8
		c2.6,4.7-1.6,9.1-4,12.9c-3.2,5.1-7.6,10.1-8.1,16.3c4.3,1.8,7.9-1.9,10.8-4.7c1.8-2.1,4.2-3.6,6.7-4.8c-2.7-4.3-1.6-10,2.4-13.1
		c5.5-4.3,12.6-7.8,19.8-6.6c2.5,0.3,2,3.3,1.6,5c-1.5,2.1-3.6,4.4-6.4,4.1c-1.6,0.3-2.2-1.6-3.2-2.5c-3.7,2-7.2,4.5-10.1,7.5
		c3.2,0.7,6.7-1.9,9.6-0.1c0.1,1.2,0.2,2.4,0.2,3.6c-5.2,2.6-11.2,4.7-14.6,9.9c2.1,3.2,6.1,2.9,9.4,2.3c4.5-1.2,8-4.5,11.7-7.2
		c1.5-1.1,3.2-2.1,4.1-3.8c2.6-4.4,5.2-8.8,7.8-13.2c1.2-2,2.5-4.2,4.5-5.5c1.9-0.6,3.9-0.4,5.8-0.5c-0.7,3.1-2.2,5.9-3.6,8.7
		c3.6-3.1,7.2-6.4,11.6-8.3c2.3-0.6,4.6-0.3,6.9,0c1.7,6-2.9,11.2-6.3,15.5c-1,1.8-3,1.4-4.6,0.9c-0.7-3.6,0.6-6.9,2.5-9.9
		c-9.7,7.5-17.9,16.8-25.4,26.5c-1.8,2.5-5.2,1-7.3-0.4c-7,4.1-17.4,5.9-23.4-0.8c-3,2-6.1,4.5-10,4.3c-3.7,0.1-6.6-3.1-7.3-6.6
		c0.6-8.8,7.3-15.2,10.6-22.9c-10,7.3-17.9,17-25.5,26.7c-1.6,1.9-4.4,0.5-6.5,0.5c-0.1-3.5,2.2-6.2,3.8-9.1
		C122.7,241.8,126.8,233.9,131.8,226.7z"/>
</g>
<g>
	<path d="M244.5,201.4c4.6-2,8.5-6.4,13.8-6c0.8,0.9,1.5,1.8,2.3,2.7c-5.8,9.7-12.4,18.8-18.3,28.4c8.2,0.3,16.3,0.1,24.5-0.1
		c6.2-8.7,11.4-18.1,17.5-26.9c1.9-3.6,6.5-1.6,9.6-1.7c-0.3,2.1-1.2,4-2.4,5.7c-12.2,18.2-23.4,37.1-34.8,55.8
		c-2.8,0.5-5.6,0.5-8.4,0.3c0.9-4.8,3.9-8.7,6.3-12.8c2.5-4.1,5-8.3,7.4-12.4c-8.3,0.1-16.7-0.4-25,0.3c-5.3,8.2-9.9,16.8-15.1,24.9
		c-2.6-0.4-5.1-0.8-7.7-1.2c2.6-8.9,9.3-15.6,13.7-23.6c-2-0.6-4.2-0.7-6-1.7c-1.8-1.6-2.1-4.1-2.7-6.4c4.7-0.1,9.3,0.1,14,0.1
		c4.1-6.3,8.4-12.5,12.6-18.8c-4.7,2.4-10.1,4.9-15.5,3.1c-2.1-0.9-4.6-2.4-4.3-5.1c-0.3-2.9,2.5-4.4,4.7-5.4
		C233.7,205.7,240.4,203.8,244.5,201.4z"/>
	<path d="M337.2,197.2c1.8-3,5.4-2.9,8.5-2.6c-2.3,5.7-6.3,10.4-9.4,15.7c-2.9,4.9-5.9,9.7-8.8,14.6c4.4,0.1,10.5-2.4,13.5,2
		c3.2,5.2-0.4,11.4-3.2,16c-5.4,7.6-12.4,15.4-21.9,17.6c-3.3,1-6.1-1.6-7.4-4.4c-1.4-7.4,2.7-14.2,5.5-20.8
		C320.9,222.1,328.6,209.3,337.2,197.2 M322.4,233.7c-3.1,6.5-7.8,12.9-7.8,20.4c2.2-0.3,4.5-0.7,6.3-2.1c4.9-3.7,9.3-8.2,12.3-13.6
		c1.3-2.1,1.4-4.6,1.4-7C330.3,230.6,326.5,232.9,322.4,233.7z"/>
	<path d="M370.2,197.2c1.8-3,5.5-2.9,8.5-2.5c-1.8,4.1-4.4,7.8-6.8,11.5c-4.3,6.3-7.9,13.1-12,19.5c3.5-1.2,7.3-1.8,11.1-1.2
		c3.9,1.2,5,5.9,3.9,9.4c-2.1,7.9-7.6,14.2-13.4,19.6c-4.3,3.7-9.6,7.4-15.6,6.9c-2.9-1.2-5-4.3-4.7-7.5c0.2-6.1,3.1-11.6,5.6-17
		C353.6,222.4,361.6,209.5,370.2,197.2 M355.6,233.7c-3.3,6.1-7.2,12.4-8.1,19.5c3.4,1.9,6.7-1.5,9.2-3.5
		c5.1-4.9,11.6-10.6,10.9-18.5C363.3,230.7,359.5,232.8,355.6,233.7z"/>
	<path d="M296.4,224.6c4.1-1.4,7.9,1,11.6,2.6c2.7,1.4,1.7,5.2,1.1,7.6c-3.6,8.8-9.8,16.5-17.5,22c-3.8,2.5-8.7,4.9-13.1,2.8
		c-3.5-1.9-4.5-6.4-3.7-10C277.3,238.4,285.9,228.9,296.4,224.6 M297.5,230.6c-5.6,2.6-10,7.4-13.3,12.5c-1.9,2.9-3.4,6.4-2.9,9.9
		c2.1,1.5,4.6-0.1,6.4-1.2c5.8-4.2,10.3-10.1,13.5-16.4C302.9,233.1,300.1,229.2,297.5,230.6z"/>
	<path d="M385.8,227.7c0.6-1.4,2.1-1.8,3.3-2.5c0.6,1.2,1.5,2.4,1.9,3.8c-2.6,8.5-9,15.3-11.1,23.9c10.5-6.2,18.2-16.2,25.2-25.9
		c1.4-2.7,5.7-1.8,6.5,0.9c-6.2,11.1-13.4,21.7-18.5,33.4c3.5-2.5,6.6-5.6,9.9-8.4c3.1-2.6,5.5-6.3,9.6-7.3c0,2.2,1.2,5.3-1.2,6.7
		c-8.3,6.3-15.8,13.6-22.9,21.1c-3.1,3.6-4.5,8.8-8.8,11.3c-2.4,0.9-6.3,1.3-6.9-2c-0.3-7.1,4.9-12.7,9.6-17.4
		c4.2-3.9,6.3-9.3,8.8-14.3c-3.9,3.5-7.4,7.9-12.6,9.3c-2.5,0.8-6.4-0.5-6.2-3.6c-0.7-5.4,2.4-10.1,5-14.4
		C380.4,237.7,383,232.6,385.8,227.7z"/>
</g>
</svg>
